<mxfile host="app.diagrams.net" modified="2023-03-23T17:37:05.047Z" agent="Mozilla/5.0 (Windows NT 10.0; Win64; x64) AppleWebKit/537.36 (KHTML, like Gecko) Chrome/111.0.0.0 Safari/537.36" etag="W9dGqw_CLPVFPg8pP08B" version="21.1.0" type="device">
  <diagram name="Page-1" id="SUd0g6qpE-yk-ooul8g_">
    <mxGraphModel dx="659" dy="364" grid="1" gridSize="10" guides="1" tooltips="1" connect="1" arrows="1" fold="1" page="1" pageScale="1" pageWidth="827" pageHeight="1169" math="0" shadow="0">
      <root>
        <mxCell id="0" />
        <mxCell id="1" parent="0" />
        <mxCell id="-zcHjN8xM_PK8OtwrLqb-74" value="" style="rounded=1;whiteSpace=wrap;html=1;fillColor=none;" parent="1" vertex="1">
          <mxGeometry x="140.5" y="59" width="114.5" height="181" as="geometry" />
        </mxCell>
        <mxCell id="gkrDH6FNTRwxNcTsArpj-52" value="" style="rounded=0;whiteSpace=wrap;html=1;fillColor=#FCFCFC;strokeWidth=5;" parent="1" vertex="1">
          <mxGeometry x="275" y="34" width="329" height="260" as="geometry" />
        </mxCell>
        <mxCell id="gkrDH6FNTRwxNcTsArpj-53" value="&lt;b style=&quot;border-color: var(--border-color); font-size: 16px;&quot;&gt;&lt;font style=&quot;border-color: var(--border-color);&quot; color=&quot;#050505&quot;&gt;Transcription Extractor&lt;/font&gt;&lt;/b&gt;" style="text;html=1;strokeColor=none;fillColor=none;align=center;verticalAlign=middle;whiteSpace=wrap;rounded=0;" parent="1" vertex="1">
          <mxGeometry x="336" y="41" width="210" height="30" as="geometry" />
        </mxCell>
        <mxCell id="gkrDH6FNTRwxNcTsArpj-117" value="YouTube Audio Extractor" style="rounded=0;whiteSpace=wrap;html=1;" parent="1" vertex="1">
          <mxGeometry x="300.5" y="87" width="89.5" height="47" as="geometry" />
        </mxCell>
        <mxCell id="gkrDH6FNTRwxNcTsArpj-118" value="Song Recogniser + Lyrics Retreiver" style="rounded=0;whiteSpace=wrap;html=1;" parent="1" vertex="1">
          <mxGeometry x="386" y="161" width="110" height="50" as="geometry" />
        </mxCell>
        <mxCell id="gkrDH6FNTRwxNcTsArpj-119" value="Audio Transcriber" style="rounded=0;whiteSpace=wrap;html=1;" parent="1" vertex="1">
          <mxGeometry x="432" y="227.5" width="110" height="50" as="geometry" />
        </mxCell>
        <mxCell id="gkrDH6FNTRwxNcTsArpj-115" value="" style="shape=image;html=1;verticalAlign=top;verticalLabelPosition=bottom;labelBackgroundColor=#ffffff;imageAspect=0;aspect=fixed;image=https://cdn0.iconfinder.com/data/icons/google-material-design-3-0/48/ic_library_music_48px-128.png" parent="1" vertex="1">
          <mxGeometry x="177" y="166" width="40" height="40" as="geometry" />
        </mxCell>
        <mxCell id="gkrDH6FNTRwxNcTsArpj-122" value="" style="edgeStyle=orthogonalEdgeStyle;rounded=0;orthogonalLoop=1;jettySize=auto;html=1;strokeWidth=2;strokeColor=#030303;startArrow=none;exitX=0.5;exitY=1;exitDx=0;exitDy=0;entryX=0;entryY=0.5;entryDx=0;entryDy=0;" parent="1" source="gkrDH6FNTRwxNcTsArpj-117" target="gkrDH6FNTRwxNcTsArpj-118" edge="1">
          <mxGeometry relative="1" as="geometry">
            <mxPoint x="250.25" y="138" as="sourcePoint" />
            <mxPoint x="195" y="263" as="targetPoint" />
            <Array as="points">
              <mxPoint x="345" y="185" />
              <mxPoint x="380" y="185" />
              <mxPoint x="380" y="186" />
            </Array>
          </mxGeometry>
        </mxCell>
        <mxCell id="gkrDH6FNTRwxNcTsArpj-123" value="" style="edgeStyle=orthogonalEdgeStyle;rounded=0;orthogonalLoop=1;jettySize=auto;html=1;strokeWidth=2;entryX=0;entryY=0.5;entryDx=0;entryDy=0;strokeColor=#030303;startArrow=none;exitX=0.209;exitY=0.98;exitDx=0;exitDy=0;exitPerimeter=0;" parent="1" source="gkrDH6FNTRwxNcTsArpj-118" target="gkrDH6FNTRwxNcTsArpj-119" edge="1">
          <mxGeometry relative="1" as="geometry">
            <mxPoint x="389.25" y="163" as="sourcePoint" />
            <mxPoint x="411.25" y="198" as="targetPoint" />
            <Array as="points" />
          </mxGeometry>
        </mxCell>
        <mxCell id="-zcHjN8xM_PK8OtwrLqb-11" value="" style="shape=image;html=1;verticalAlign=top;verticalLabelPosition=bottom;labelBackgroundColor=#ffffff;imageAspect=0;aspect=fixed;image=https://cdn4.iconfinder.com/data/icons/48-bubbles/48/12.File-128.png" parent="1" vertex="1">
          <mxGeometry x="650.5" y="149.5" width="46.5" height="46.5" as="geometry" />
        </mxCell>
        <mxCell id="-zcHjN8xM_PK8OtwrLqb-18" value="&lt;font style=&quot;font-size: 10px;&quot;&gt;&lt;b&gt;Transcript&lt;/b&gt;&lt;/font&gt;" style="text;html=1;align=center;verticalAlign=middle;resizable=0;points=[];autosize=1;strokeColor=none;fillColor=none;" parent="1" vertex="1">
          <mxGeometry x="638" y="190" width="70" height="30" as="geometry" />
        </mxCell>
        <mxCell id="-zcHjN8xM_PK8OtwrLqb-61" value="&lt;font size=&quot;1&quot; style=&quot;&quot;&gt;&lt;b style=&quot;font-size: 9px;&quot;&gt;Audio File&lt;/b&gt;&lt;/font&gt;" style="text;html=1;align=center;verticalAlign=middle;resizable=0;points=[];autosize=1;strokeColor=none;fillColor=none;" parent="1" vertex="1">
          <mxGeometry x="161" y="195.5" width="70" height="30" as="geometry" />
        </mxCell>
        <mxCell id="-zcHjN8xM_PK8OtwrLqb-65" value="&lt;font style=&quot;font-size: 9px;&quot;&gt;&lt;b&gt;YouTube Video URL&lt;/b&gt;&lt;/font&gt;" style="text;html=1;align=center;verticalAlign=middle;resizable=0;points=[];autosize=1;strokeColor=none;fillColor=none;" parent="1" vertex="1">
          <mxGeometry x="143" y="114.5" width="110" height="30" as="geometry" />
        </mxCell>
        <mxCell id="-zcHjN8xM_PK8OtwrLqb-66" value="" style="shape=image;verticalLabelPosition=bottom;labelBackgroundColor=default;verticalAlign=top;aspect=fixed;imageAspect=0;image=https://cdn-icons-png.flaticon.com/128/174/174883.png;" parent="1" vertex="1">
          <mxGeometry x="179" y="88" width="40" height="40" as="geometry" />
        </mxCell>
        <mxCell id="-zcHjN8xM_PK8OtwrLqb-67" value="" style="edgeStyle=orthogonalEdgeStyle;rounded=0;orthogonalLoop=1;jettySize=auto;html=1;strokeWidth=2;strokeColor=#030303;startArrow=none;entryX=0;entryY=0.5;entryDx=0;entryDy=0;" parent="1" target="gkrDH6FNTRwxNcTsArpj-117" edge="1">
          <mxGeometry relative="1" as="geometry">
            <mxPoint x="225" y="110" as="sourcePoint" />
            <mxPoint x="400" y="176" as="targetPoint" />
            <Array as="points">
              <mxPoint x="225" y="110" />
              <mxPoint x="296" y="110" />
            </Array>
          </mxGeometry>
        </mxCell>
        <mxCell id="-zcHjN8xM_PK8OtwrLqb-68" value="YouTube Captions&lt;br&gt;Extractor" style="rounded=0;whiteSpace=wrap;html=1;" parent="1" vertex="1">
          <mxGeometry x="433.5" y="89" width="108.5" height="46" as="geometry" />
        </mxCell>
        <mxCell id="-zcHjN8xM_PK8OtwrLqb-69" value="" style="edgeStyle=orthogonalEdgeStyle;rounded=0;orthogonalLoop=1;jettySize=auto;html=1;strokeWidth=2;strokeColor=#030303;startArrow=none;exitX=1;exitY=0.5;exitDx=0;exitDy=0;entryX=0;entryY=0.5;entryDx=0;entryDy=0;" parent="1" source="gkrDH6FNTRwxNcTsArpj-117" target="-zcHjN8xM_PK8OtwrLqb-68" edge="1">
          <mxGeometry relative="1" as="geometry">
            <mxPoint x="227" y="112" as="sourcePoint" />
            <mxPoint x="344" y="138" as="targetPoint" />
            <Array as="points">
              <mxPoint x="390" y="112" />
              <mxPoint x="433" y="112" />
            </Array>
          </mxGeometry>
        </mxCell>
        <mxCell id="-zcHjN8xM_PK8OtwrLqb-73" value="" style="shape=image;html=1;verticalAlign=top;verticalLabelPosition=bottom;labelBackgroundColor=#ffffff;imageAspect=0;aspect=fixed;image=https://cdn0.iconfinder.com/data/icons/google-material-design-3-0/48/ic_library_music_48px-128.png;imageBackground=#FFFFFF;" parent="1" vertex="1">
          <mxGeometry x="350" y="161.25" width="21" height="21" as="geometry" />
        </mxCell>
        <mxCell id="-zcHjN8xM_PK8OtwrLqb-75" value="&lt;b style=&quot;border-color: var(--border-color);&quot;&gt;&lt;font style=&quot;border-color: var(--border-color); font-size: 14px;&quot; color=&quot;#050505&quot;&gt;User Input&lt;/font&gt;&lt;/b&gt;" style="text;html=1;strokeColor=none;fillColor=none;align=center;verticalAlign=middle;whiteSpace=wrap;rounded=0;" parent="1" vertex="1">
          <mxGeometry x="150.75" y="59" width="94.5" height="23" as="geometry" />
        </mxCell>
        <mxCell id="-zcHjN8xM_PK8OtwrLqb-76" value="" style="edgeStyle=orthogonalEdgeStyle;rounded=0;orthogonalLoop=1;jettySize=auto;html=1;strokeWidth=2;strokeColor=#030303;startArrow=none;exitX=1;exitY=0.5;exitDx=0;exitDy=0;" parent="1" source="gkrDH6FNTRwxNcTsArpj-118" edge="1">
          <mxGeometry relative="1" as="geometry">
            <mxPoint x="551" y="123" as="sourcePoint" />
            <mxPoint x="654" y="186" as="targetPoint" />
            <Array as="points">
              <mxPoint x="634" y="186" />
              <mxPoint x="634" y="186" />
            </Array>
          </mxGeometry>
        </mxCell>
        <mxCell id="-zcHjN8xM_PK8OtwrLqb-78" value="" style="edgeStyle=orthogonalEdgeStyle;rounded=0;orthogonalLoop=1;jettySize=auto;html=1;strokeWidth=2;strokeColor=#030303;startArrow=none;entryX=0;entryY=0.5;entryDx=0;entryDy=0;" parent="1" target="gkrDH6FNTRwxNcTsArpj-118" edge="1">
          <mxGeometry relative="1" as="geometry">
            <mxPoint x="216" y="186" as="sourcePoint" />
            <mxPoint x="385.2299999999999" y="181.5" as="targetPoint" />
            <Array as="points">
              <mxPoint x="216" y="186" />
              <mxPoint x="385" y="186" />
            </Array>
          </mxGeometry>
        </mxCell>
        <mxCell id="-zcHjN8xM_PK8OtwrLqb-84" value="" style="edgeStyle=orthogonalEdgeStyle;rounded=0;orthogonalLoop=1;jettySize=auto;html=1;strokeWidth=2;strokeColor=#030303;startArrow=none;exitX=1;exitY=0.5;exitDx=0;exitDy=0;" parent="1" source="-zcHjN8xM_PK8OtwrLqb-68" edge="1">
          <mxGeometry relative="1" as="geometry">
            <mxPoint x="542" y="109" as="sourcePoint" />
            <mxPoint x="574" y="184" as="targetPoint" />
            <Array as="points">
              <mxPoint x="574" y="112" />
            </Array>
          </mxGeometry>
        </mxCell>
        <mxCell id="-zcHjN8xM_PK8OtwrLqb-85" value="" style="edgeStyle=orthogonalEdgeStyle;rounded=0;orthogonalLoop=1;jettySize=auto;html=1;strokeWidth=2;strokeColor=#030303;startArrow=none;exitX=1;exitY=0.5;exitDx=0;exitDy=0;" parent="1" source="gkrDH6FNTRwxNcTsArpj-119" edge="1">
          <mxGeometry relative="1" as="geometry">
            <mxPoint x="542" y="251.5" as="sourcePoint" />
            <mxPoint x="574" y="188" as="targetPoint" />
            <Array as="points">
              <mxPoint x="574" y="253" />
            </Array>
          </mxGeometry>
        </mxCell>
        <mxCell id="vBWEGKFF-OBlROHXlsks-1" value="&lt;font size=&quot;1&quot; style=&quot;&quot;&gt;&lt;b style=&quot;font-size: 13px;&quot;&gt;OR&lt;/b&gt;&lt;/font&gt;" style="text;html=1;align=center;verticalAlign=middle;resizable=0;points=[];autosize=1;strokeColor=none;fillColor=none;" parent="1" vertex="1">
          <mxGeometry x="178" y="136.5" width="40" height="30" as="geometry" />
        </mxCell>
      </root>
    </mxGraphModel>
  </diagram>
</mxfile>
